<svg width="22" height="21" viewBox="0 0 22 21" fill="none" xmlns="http://www.w3.org/2000/svg">
<path d="M19.5 0.019989H2.5C1.26 0.019989 0.25 1.02699 0.25 2.26699V17.774C0.25 19.012 1.26 20.02 2.5 20.02H19.5C20.74 20.02 21.75 19.012 21.75 17.774V2.26699C21.75 1.02699 20.74 0.019989 19.5 0.019989ZM20.25 17.774C20.25 18.184 19.914 18.52 19.5 18.52H2.5C2.086 18.52 1.75 18.184 1.75 17.774V2.26699C1.75 1.85499 2.086 1.51999 2.5 1.51999H19.5C19.914 1.51999 20.25 1.85499 20.25 2.26699V17.774Z" fill="#1DA1F2"/>
</svg>
